<?xml version="1.0" encoding="UTF-8"?>
<svg width="700pt" height="700pt" version="1.1" viewBox="0 0 700 700" xmlns="http://www.w3.org/2000/svg">
 <path d="m350 42c-61.164 0-110.77 49.684-110.77 110.88v21.191h-46.32c-7.6875 0.03125-13.914 6.2578-13.945 13.945v270.27c0 32.855 26.914 59.719 59.746 59.719h222.71c32.832 0 59.609-26.871 59.609-59.719v-270.27c-0.03125-7.6875-6.2578-13.914-13.945-13.945h-46.293v-21.191c0-61.195-49.633-110.88-110.8-110.88zm0 28c46.121 0 82.797 36.699 82.797 82.879v21.191h-165.68v-21.191c0-46.18 36.758-82.879 82.879-82.879zm-143.04 132.07h32.266v39.484c-0.015625 3.7148 1.4453 7.2812 4.0625 9.9141 2.6133 2.6367 6.168 4.125 9.8828 4.1406 3.7148-0.015625 7.2695-1.5039 9.8828-4.1406 2.6172-2.6328 4.0781-6.1992 4.0625-9.9141v-39.484h165.68v39.484c-0.015625 3.7305 1.4609 7.3164 4.1016 9.9531 2.6367 2.6406 6.2227 4.1172 9.9531 4.1016 3.7148-0.015625 7.2695-1.5039 9.8828-4.1406 2.6172-2.6328 4.0781-6.1992 4.0625-9.9141v-39.484h32.238v256.21c0 17.852-13.809 31.719-31.609 31.719h-222.71c-17.797 0-31.746-13.879-31.746-31.719z"/>
</svg>
