<?xml version="1.0" encoding="UTF-8"?>
<svg width="700pt" height="700pt" version="1.1" viewBox="0 0 700 700" xmlns="http://www.w3.org/2000/svg" xmlns:xlink="http://www.w3.org/1999/xlink">
 <defs>
  <symbol id="u" overflow="visible">
   <path d="m4.7031-0.28125c-0.24219 0.125-0.49219 0.21875-0.75 0.28125-0.26172 0.0625-0.53906 0.09375-0.82812 0.09375-0.85547 0-1.5312-0.23438-2.0312-0.70312-0.5-0.47656-0.75-1.1289-0.75-1.9531 0-0.8125 0.25-1.457 0.75-1.9375 0.5-0.47656 1.1758-0.71875 2.0312-0.71875 0.28906 0 0.56641 0.03125 0.82812 0.09375 0.25781 0.0625 0.50781 0.15625 0.75 0.28125v1.0625c-0.24219-0.16406-0.48047-0.28516-0.71875-0.35938-0.24219-0.082031-0.49219-0.125-0.75-0.125-0.46875 0-0.83984 0.15234-1.1094 0.45312-0.27344 0.30469-0.40625 0.71875-0.40625 1.25s0.13281 0.94922 0.40625 1.25c0.26953 0.30469 0.64062 0.45312 1.1094 0.45312 0.25781 0 0.50781-0.035156 0.75-0.10938 0.23828-0.082031 0.47656-0.20703 0.71875-0.375z"/>
  </symbol>
  <symbol id="a" overflow="visible">
   <path d="m3.4531-2.7969c-0.11719-0.050781-0.22656-0.085937-0.32812-0.10938-0.10547-0.03125-0.21094-0.046875-0.3125-0.046875-0.32422 0-0.57422 0.10547-0.75 0.3125-0.16797 0.19922-0.25 0.49219-0.25 0.875v1.7656h-1.2188v-3.8438h1.2188v0.625c0.16406-0.25 0.34766-0.42969 0.54688-0.54688 0.20703-0.11328 0.45312-0.17188 0.73438-0.17188 0.039062 0 0.085938 0.007812 0.14062 0.015625 0.050781 0 0.11719 0.007813 0.20312 0.015625z"/>
  </symbol>
  <symbol id="b" overflow="visible">
   <path d="m4.4219-1.9375v0.35938h-2.8594c0.019531 0.28125 0.11719 0.49609 0.29688 0.64062 0.1875 0.14844 0.4375 0.21875 0.75 0.21875 0.25781 0 0.52344-0.035156 0.79688-0.10938 0.26953-0.082031 0.55078-0.20312 0.84375-0.35938v0.95312c-0.29297 0.11719-0.58594 0.19922-0.875 0.25-0.29297 0.050781-0.58594 0.078125-0.875 0.078125-0.69922 0-1.2422-0.17578-1.625-0.53125-0.38672-0.35156-0.57812-0.84766-0.57812-1.4844 0-0.625 0.1875-1.1133 0.5625-1.4688 0.38281-0.36328 0.91016-0.54688 1.5781-0.54688 0.60156 0 1.082 0.18359 1.4375 0.54688 0.36328 0.36719 0.54688 0.85156 0.54688 1.4531zm-1.25-0.40625c0-0.22656-0.074219-0.41406-0.21875-0.5625-0.13672-0.14453-0.3125-0.21875-0.53125-0.21875-0.24219 0-0.43359 0.070312-0.57812 0.20312-0.14844 0.13672-0.24219 0.32812-0.28125 0.57812z"/>
  </symbol>
  <symbol id="d" overflow="visible">
   <path d="m2.3125-1.7344c-0.26172 0-0.45312 0.046875-0.57812 0.14062-0.125 0.085938-0.1875 0.21094-0.1875 0.375 0 0.15625 0.050781 0.28125 0.15625 0.375 0.10156 0.085938 0.24219 0.125 0.42188 0.125 0.23828 0 0.4375-0.082031 0.59375-0.25 0.15625-0.16406 0.23438-0.375 0.23438-0.625v-0.14062zm1.875-0.45312v2.1875h-1.2344v-0.5625c-0.16797 0.23047-0.35547 0.39844-0.5625 0.5-0.19922 0.10156-0.44922 0.15625-0.75 0.15625-0.39844 0-0.71875-0.11328-0.96875-0.34375-0.25-0.22656-0.375-0.53125-0.375-0.90625 0-0.44531 0.15625-0.77344 0.46875-0.98438 0.3125-0.21875 0.80078-0.32812 1.4688-0.32812h0.71875v-0.09375c0-0.1875-0.078125-0.32812-0.23438-0.42188-0.14844-0.09375-0.38672-0.14062-0.71875-0.14062-0.26172 0-0.50781 0.027344-0.73438 0.078125-0.21875 0.054687-0.42969 0.13281-0.625 0.23438v-0.9375c0.25781-0.0625 0.51953-0.10938 0.78125-0.14062 0.26953-0.03125 0.53906-0.046875 0.8125-0.046875 0.6875 0 1.1797 0.13672 1.4844 0.40625 0.3125 0.27344 0.46875 0.71875 0.46875 1.3438z"/>
  </symbol>
  <symbol id="c" overflow="visible">
   <path d="m1.9375-4.9375v1.0938h1.2656v0.875h-1.2656v1.6406c0 0.17969 0.03125 0.29688 0.09375 0.35938 0.070312 0.0625 0.21875 0.09375 0.4375 0.09375h0.625v0.875h-1.0469c-0.49219 0-0.83984-0.097656-1.0469-0.29688-0.19922-0.20703-0.29688-0.55078-0.29688-1.0312v-1.6406h-0.60938v-0.875h0.60938v-1.0938z"/>
  </symbol>
  <symbol id="m" overflow="visible">
   <path d="m3.2031-3.2812v-2.0625h1.2344v5.3438h-1.2344v-0.5625c-0.16797 0.23047-0.35547 0.39844-0.5625 0.5-0.19922 0.10156-0.43359 0.15625-0.70312 0.15625-0.46875 0-0.85938-0.1875-1.1719-0.5625-0.30469-0.375-0.45312-0.85938-0.45312-1.4531s0.14844-1.0781 0.45312-1.4531c0.3125-0.375 0.70312-0.5625 1.1719-0.5625 0.26953 0 0.50391 0.054688 0.70312 0.15625 0.20703 0.10547 0.39453 0.27344 0.5625 0.5zm-0.8125 2.4844c0.26953 0 0.47266-0.09375 0.60938-0.28125 0.13281-0.19531 0.20312-0.47656 0.20312-0.84375 0-0.36328-0.070313-0.64062-0.20312-0.82812-0.13672-0.19531-0.33984-0.29688-0.60938-0.29688-0.26172 0-0.46094 0.10156-0.59375 0.29688-0.13672 0.1875-0.20312 0.46484-0.20312 0.82812 0 0.36719 0.066406 0.64844 0.20312 0.84375 0.13281 0.1875 0.33203 0.28125 0.59375 0.28125z"/>
  </symbol>
  <symbol id="l" overflow="visible">
   <path d="m2.6406-0.79688c0.25781 0 0.45703-0.09375 0.59375-0.28125 0.14453-0.19531 0.21875-0.47656 0.21875-0.84375 0-0.36328-0.074219-0.64062-0.21875-0.82812-0.13672-0.19531-0.33594-0.29688-0.59375-0.29688-0.27344 0-0.48047 0.10156-0.625 0.29688-0.13672 0.1875-0.20312 0.46484-0.20312 0.82812 0 0.36719 0.066406 0.64844 0.20312 0.84375 0.14453 0.1875 0.35156 0.28125 0.625 0.28125zm-0.82812-2.4844c0.17578-0.22656 0.36328-0.39453 0.5625-0.5 0.20703-0.10156 0.44531-0.15625 0.71875-0.15625 0.46875 0 0.85156 0.1875 1.1562 0.5625 0.3125 0.375 0.46875 0.85938 0.46875 1.4531s-0.15625 1.0781-0.46875 1.4531c-0.30469 0.375-0.6875 0.5625-1.1562 0.5625-0.27344 0-0.51172-0.054688-0.71875-0.15625-0.19922-0.10156-0.38672-0.26953-0.5625-0.5v0.5625h-1.2188v-5.3438h1.2188z"/>
  </symbol>
  <symbol id="k" overflow="visible">
   <path d="m0.078125-3.8438h1.2344l1.0312 2.6094 0.89062-2.6094h1.2188l-1.6094 4.2031c-0.16797 0.42578-0.35938 0.72266-0.57812 0.89062-0.21094 0.17578-0.49219 0.26562-0.84375 0.26562h-0.71875v-0.8125h0.39062c0.20703 0 0.35938-0.03125 0.45312-0.09375s0.16406-0.18359 0.21875-0.35938l0.03125-0.10938z"/>
  </symbol>
  <symbol id="j" overflow="visible">
   <path d="m4.2188-4.9688v1.0938c-0.28125-0.125-0.55859-0.21875-0.82812-0.28125-0.27344-0.070312-0.52734-0.10938-0.76562-0.10938-0.3125 0-0.54688 0.046875-0.70312 0.14062-0.14844 0.085938-0.21875 0.21875-0.21875 0.40625 0 0.13672 0.050781 0.24609 0.15625 0.32812 0.10156 0.074219 0.28516 0.13672 0.54688 0.1875l0.5625 0.10938c0.57031 0.11719 0.97656 0.29297 1.2188 0.53125 0.23828 0.23047 0.35938 0.55859 0.35938 0.98438 0 0.5625-0.16797 0.98438-0.5 1.2656-0.33594 0.27344-0.84375 0.40625-1.5312 0.40625-0.33594 0-0.66406-0.03125-0.98438-0.09375-0.32422-0.050781-0.65234-0.14062-0.98438-0.26562v-1.125c0.33203 0.17969 0.64844 0.3125 0.95312 0.40625 0.30078 0.085937 0.59375 0.125 0.875 0.125 0.28906 0 0.51562-0.046875 0.67188-0.14062s0.23438-0.23438 0.23438-0.42188c0-0.15625-0.054688-0.27344-0.15625-0.35938-0.10547-0.09375-0.3125-0.17188-0.625-0.23438l-0.51562-0.10938c-0.51172-0.11328-0.88672-0.28906-1.125-0.53125-0.24219-0.23828-0.35938-0.5625-0.35938-0.96875 0-0.50781 0.16406-0.89844 0.5-1.1719 0.33203-0.28125 0.80469-0.42188 1.4219-0.42188 0.28125 0 0.56641 0.023438 0.85938 0.0625 0.30078 0.042969 0.61328 0.10547 0.9375 0.1875z"/>
  </symbol>
  <symbol id="i" overflow="visible">
   <path d="m0.59375-3.8438h1.2188v3.8438h-1.2188zm0-1.5h1.2188v1h-1.2188z"/>
  </symbol>
  <symbol id="h" overflow="visible">
   <path d="m3.125-5.3438v0.8125h-0.6875c-0.16797 0-0.28906 0.03125-0.35938 0.09375-0.074219 0.0625-0.10938 0.17188-0.10938 0.32812v0.26562h1.0625v0.875h-1.0625v2.9688h-1.2188v-2.9688h-0.60938v-0.875h0.60938v-0.26562c0-0.41406 0.11328-0.72266 0.34375-0.92188 0.23828-0.20703 0.60156-0.3125 1.0938-0.3125z"/>
  </symbol>
  <symbol id="g" overflow="visible">
   <path d="m0.54688-1.5v-2.3438h1.2344v0.39062 0.78125 0.625c0 0.3125 0.003906 0.53906 0.015625 0.67188 0.019531 0.13672 0.050781 0.23438 0.09375 0.29688 0.039063 0.074219 0.10156 0.13672 0.1875 0.1875 0.082031 0.042969 0.17578 0.0625 0.28125 0.0625 0.25781 0 0.46094-0.097656 0.60938-0.29688 0.14453-0.19531 0.21875-0.47266 0.21875-0.82812v-1.8906h1.2344v3.8438h-1.2344v-0.5625c-0.1875 0.23047-0.38672 0.39844-0.59375 0.5-0.21094 0.10156-0.4375 0.15625-0.6875 0.15625-0.4375 0-0.77734-0.13281-1.0156-0.40625-0.23047-0.26953-0.34375-0.66406-0.34375-1.1875z"/>
  </symbol>
  <symbol id="f" overflow="visible">
   <path d="m0.59375-3.8438h1.2188v3.7812c0 0.50781-0.125 0.89844-0.375 1.1719-0.24219 0.26953-0.59375 0.40625-1.0625 0.40625h-0.60938v-0.8125h0.21875c0.22656 0 0.38281-0.054687 0.46875-0.15625 0.09375-0.10547 0.14062-0.30859 0.14062-0.60938zm0-1.5h1.2188v1h-1.2188z"/>
  </symbol>
  <symbol id="t" overflow="visible">
   <path d="m0.59375-5.3438h1.2188v5.3438h-1.2188z"/>
  </symbol>
  <symbol id="e" overflow="visible">
   <path d="m2.4219-3.0625c-0.27344 0-0.48047 0.10156-0.625 0.29688-0.14844 0.19922-0.21875 0.48047-0.21875 0.84375 0 0.375 0.070313 0.66406 0.21875 0.85938 0.14453 0.1875 0.35156 0.28125 0.625 0.28125 0.26953 0 0.47266-0.09375 0.60938-0.28125 0.14453-0.19531 0.21875-0.48438 0.21875-0.85938 0-0.36328-0.074219-0.64453-0.21875-0.84375-0.13672-0.19531-0.33984-0.29688-0.60938-0.29688zm0-0.875c0.65625 0 1.1719 0.18359 1.5469 0.54688 0.375 0.35547 0.5625 0.84375 0.5625 1.4688 0 0.63672-0.1875 1.1328-0.5625 1.4844-0.375 0.35547-0.89062 0.53125-1.5469 0.53125-0.66797 0-1.1875-0.17578-1.5625-0.53125-0.375-0.35156-0.5625-0.84766-0.5625-1.4844 0-0.625 0.1875-1.1133 0.5625-1.4688 0.375-0.36328 0.89453-0.54688 1.5625-0.54688z"/>
  </symbol>
  <symbol id="s" overflow="visible">
   <path d="m4.1562-3.2031c0.15625-0.23828 0.33594-0.42188 0.54688-0.54688 0.21875-0.125 0.45703-0.1875 0.71875-0.1875 0.4375 0 0.76953 0.13672 1 0.40625 0.22656 0.27344 0.34375 0.66797 0.34375 1.1875v2.3438h-1.2344v-2-0.09375c0.007812-0.03125 0.015625-0.078125 0.015625-0.14062 0-0.26953-0.042969-0.46875-0.125-0.59375-0.085937-0.125-0.21484-0.1875-0.39062-0.1875-0.23047 0-0.41406 0.10156-0.54688 0.29688-0.125 0.1875-0.1875 0.46484-0.1875 0.82812v1.8906h-1.2344v-2c0-0.42578-0.039062-0.70312-0.10938-0.82812-0.074219-0.125-0.20312-0.1875-0.39062-0.1875-0.24219 0-0.42969 0.10156-0.5625 0.29688-0.125 0.1875-0.1875 0.46484-0.1875 0.82812v1.8906h-1.2344v-3.8438h1.2344v0.5625c0.15625-0.21875 0.33203-0.37891 0.53125-0.48438 0.19531-0.11328 0.41016-0.17188 0.64062-0.17188 0.26953 0 0.50391 0.070312 0.70312 0.20312 0.20703 0.125 0.36328 0.30469 0.46875 0.53125z"/>
  </symbol>
  <symbol id="r" overflow="visible">
   <path d="m4.4531-2.3438v2.3438h-1.2344v-1.7812c0-0.34375-0.011719-0.57812-0.03125-0.70312-0.011719-0.125-0.03125-0.21094-0.0625-0.26562-0.054688-0.082031-0.12109-0.14453-0.20312-0.1875-0.085937-0.050781-0.17969-0.078125-0.28125-0.078125-0.25 0-0.45312 0.10156-0.60938 0.29688-0.14844 0.19922-0.21875 0.47656-0.21875 0.82812v1.8906h-1.2188v-5.3438h1.2188v2.0625c0.1875-0.22656 0.38281-0.39453 0.59375-0.5 0.20703-0.10156 0.4375-0.15625 0.6875-0.15625 0.44531 0 0.78516 0.13672 1.0156 0.40625 0.22656 0.27344 0.34375 0.66797 0.34375 1.1875z"/>
  </symbol>
  <symbol id="q" overflow="visible">
   <path d="m0.64062-5.125h1.4844l1.8594 3.5156v-3.5156h1.25v5.125h-1.4688l-1.8594-3.5156v3.5156h-1.2656z"/>
  </symbol>
  <symbol id="p" overflow="visible">
   <path d="m4.4531-2.3438v2.3438h-1.2344v-1.7969c0-0.33203-0.011719-0.5625-0.03125-0.6875-0.011719-0.125-0.03125-0.21094-0.0625-0.26562-0.054688-0.082031-0.12109-0.14453-0.20312-0.1875-0.085937-0.050781-0.17969-0.078125-0.28125-0.078125-0.25 0-0.45312 0.10156-0.60938 0.29688-0.14844 0.19922-0.21875 0.47656-0.21875 0.82812v1.8906h-1.2188v-3.8438h1.2188v0.5625c0.1875-0.22656 0.38281-0.39453 0.59375-0.5 0.20703-0.10156 0.4375-0.15625 0.6875-0.15625 0.44531 0 0.78516 0.13672 1.0156 0.40625 0.22656 0.27344 0.34375 0.66797 0.34375 1.1875z"/>
  </symbol>
  <symbol id="o" overflow="visible">
   <path d="m0.64062-5.125h2.2031c0.64453 0 1.1406 0.14844 1.4844 0.4375 0.35156 0.29297 0.53125 0.70312 0.53125 1.2344 0 0.54297-0.17969 0.96094-0.53125 1.25-0.34375 0.28125-0.83984 0.42188-1.4844 0.42188h-0.875v1.7812h-1.3281zm1.3281 0.95312v1.4375h0.73438c0.25 0 0.44141-0.0625 0.57812-0.1875 0.14453-0.125 0.21875-0.30078 0.21875-0.53125 0-0.22656-0.074219-0.40625-0.21875-0.53125-0.13672-0.125-0.32812-0.1875-0.57812-0.1875z"/>
  </symbol>
  <symbol id="n" overflow="visible">
   <path d="m3.7031-3.7188v1c-0.16797-0.11328-0.33984-0.19531-0.51562-0.25-0.16797-0.0625-0.33984-0.09375-0.51562-0.09375-0.34375 0-0.61719 0.10547-0.8125 0.3125-0.1875 0.19922-0.28125 0.47656-0.28125 0.82812 0 0.36719 0.09375 0.64844 0.28125 0.84375 0.19531 0.19922 0.46875 0.29688 0.8125 0.29688 0.1875 0 0.36719-0.023438 0.54688-0.078125 0.17578-0.0625 0.33594-0.14844 0.48438-0.26562v1.0156c-0.19922 0.074219-0.39844 0.125-0.59375 0.15625-0.19922 0.03125-0.39844 0.046875-0.59375 0.046875-0.69922 0-1.2461-0.17578-1.6406-0.53125-0.38672-0.35156-0.57812-0.84766-0.57812-1.4844 0-0.63281 0.19141-1.1289 0.57812-1.4844 0.39453-0.35156 0.94141-0.53125 1.6406-0.53125 0.19531 0 0.39453 0.023438 0.59375 0.0625 0.19531 0.03125 0.39453 0.085938 0.59375 0.15625z"/>
  </symbol>
 </defs>
 <g>
  <path d="m514.62 416.48v-178.7c0-90.051-74.574-164.62-164.62-164.62s-164.62 74.574-164.62 164.62v178.7c0 8.4414-7.0352 14.07-14.07 14.07h-30.953c-9.8477 0-16.883 7.0352-16.883 16.883 0 8.4414 7.0352 15.477 16.883 15.477h419.3c9.8477 0 16.883-7.0352 16.883-15.477 0-9.8477-7.0352-16.883-16.883-16.883h-30.953c-7.0352 0-14.07-5.6289-14.07-14.07zm-229.35-360.2c4.2227-30.953 32.363-56.281 64.723-56.281 32.363 0 60.504 25.328 64.723 56.281 74.574 26.734 128.04 98.492 128.04 181.51v164.62h16.883c25.328 0 45.023 19.699 45.023 45.023 0 23.918-19.699 43.617-45.023 43.617h-125.23c-8.4414 39.398-43.617 68.945-84.422 68.945-40.805 0-75.98-29.547-84.422-68.945h-125.23c-25.328 0-45.023-19.699-45.023-43.617 0-25.328 19.699-45.023 45.023-45.023h16.883v-164.62c0-83.016 53.469-154.77 128.04-181.51zm97.086-8.4414c-5.6289-11.258-18.293-19.699-32.363-19.699s-26.734 8.4414-32.363 19.699c9.8477-1.4062 21.105-2.8125 32.363-2.8125s22.512 1.4062 32.363 2.8125zm-87.234 443.21c7.0352 23.918 29.547 40.805 54.875 40.805s47.84-16.883 54.875-40.805z"/>
  <use x="95.328125" y="581.105469" xlink:href="#u"/>
  <use x="100.488281" y="581.105469" xlink:href="#a"/>
  <use x="103.960937" y="581.105469" xlink:href="#b"/>
  <use x="108.730469" y="581.105469" xlink:href="#d"/>
  <use x="113.476562" y="581.105469" xlink:href="#c"/>
  <use x="116.839844" y="581.105469" xlink:href="#b"/>
  <use x="121.613281" y="581.105469" xlink:href="#m"/>
  <use x="129.097656" y="581.105469" xlink:href="#l"/>
  <use x="134.132812" y="581.105469" xlink:href="#k"/>
  <use x="141.167969" y="581.105469" xlink:href="#j"/>
  <use x="146.234375" y="581.105469" xlink:href="#d"/>
  <use x="150.984375" y="581.105469" xlink:href="#i"/>
  <use x="153.394531" y="581.105469" xlink:href="#h"/>
  <use x="156.453125" y="581.105469" xlink:href="#g"/>
  <use x="161.464844" y="581.105469" xlink:href="#a"/>
  <use x="164.933594" y="581.105469" xlink:href="#a"/>
  <use x="168.402344" y="581.105469" xlink:href="#i"/>
  <use x="170.8125" y="581.105469" xlink:href="#f"/>
  <use x="173.226562" y="581.105469" xlink:href="#d"/>
  <use x="177.972656" y="581.105469" xlink:href="#t"/>
  <use x="95.328125" y="588.140625" xlink:href="#h"/>
  <use x="98.386719" y="588.140625" xlink:href="#a"/>
  <use x="101.855469" y="588.140625" xlink:href="#e"/>
  <use x="106.691406" y="588.140625" xlink:href="#s"/>
  <use x="116.46875" y="588.140625" xlink:href="#c"/>
  <use x="119.832031" y="588.140625" xlink:href="#r"/>
  <use x="124.839844" y="588.140625" xlink:href="#b"/>
  <use x="132.0625" y="588.140625" xlink:href="#q"/>
  <use x="137.949219" y="588.140625" xlink:href="#e"/>
  <use x="142.78125" y="588.140625" xlink:href="#g"/>
  <use x="147.792969" y="588.140625" xlink:href="#p"/>
  <use x="155.25" y="588.140625" xlink:href="#o"/>
  <use x="160.40625" y="588.140625" xlink:href="#a"/>
  <use x="163.875" y="588.140625" xlink:href="#e"/>
  <use x="168.707031" y="588.140625" xlink:href="#f"/>
  <use x="171.121094" y="588.140625" xlink:href="#b"/>
  <use x="175.890625" y="588.140625" xlink:href="#n"/>
  <use x="180.0625" y="588.140625" xlink:href="#c"/>
 </g>
</svg>
