<?xml version="1.0" encoding="UTF-8"?>
<svg width="700pt" height="700pt" version="1.1" viewBox="0 0 700 700" xmlns="http://www.w3.org/2000/svg">
 <g>
  <path d="m332.5 70c-22.418 0-40.832 18.414-40.832 40.832v30.992c-11.531 4.8125-22.355 10.973-32.359 18.457l-26.66-15.406c-19.406-11.203-44.57-4.4648-55.781 14.949l-17.5 30.352c-11.203 19.41-4.4648 44.574 14.949 55.781l25.977 14.992c-0.85938 6.293-1.8945 12.559-1.9609 18.914v0.27344c0.066407 6.3555 1.0977 12.621 1.9609 18.914l-25.977 14.992c-19.414 11.207-26.152 36.371-14.949 55.781l17.5 30.352c11.207 19.414 36.371 26.152 55.781 14.949l26.66-15.406c10.004 7.4844 20.828 13.645 32.359 18.457v30.992c0 22.418 18.414 40.832 40.832 40.832h35c22.418 0 40.832-18.414 40.832-40.832v-30.988c11.527-4.8125 22.352-10.973 32.355-18.457l26.66 15.402c19.41 11.207 44.574 4.4648 55.781-14.949l17.5-30.352c11.207-19.41 4.4648-44.574-14.949-55.781l-25.977-14.992c0.85938-6.293 1.8945-12.559 1.9609-18.914h0.003907v-0.046875-0.046875-0.046875c-0.003907-6.4336-0.95703-12.809-1.7773-19.188l25.793-14.855c19.414-11.207 26.152-36.371 14.949-55.781l-17.5-30.352c-11.211-19.41-36.371-26.148-55.781-14.945l-26.57 15.359c-10.016-7.5781-20.875-13.797-32.449-18.684v-30.719c0-22.418-18.414-40.832-40.832-40.832zm0 23.332h35c9.8984 0 17.5 7.6016 17.5 17.5v37.188c0.007812 4.9414 3.1328 9.3438 7.793 10.984 14.859 5.2539 28.625 13.23 40.605 23.469 3.7578 3.2031 9.1211 3.6953 13.398 1.2305l32.219-18.594c8.5781-4.9531 18.93-2.1914 23.879 6.3789l17.5 30.352c4.9531 8.5781 2.1914 18.93-6.3789 23.879l-32.219 18.594v0.003906c-4.2969 2.4727-6.5625 7.3867-5.6523 12.258 1.4336 7.6992 2.1758 15.5 2.1875 23.332-0.085937 7.8125-0.87109 15.621-2.3711 23.289h0.003906c-0.96484 4.8945 1.2891 9.8555 5.6055 12.352l32.449 18.73c8.5742 4.9492 11.332 15.301 6.3789 23.879l-17.5 30.352c-4.9492 8.5742-15.301 11.332-23.879 6.3789l-32.27-18.637c-4.2539-2.457-9.5938-1.9844-13.352 1.1836-11.992 10.129-25.738 17.98-40.559 23.152-4.6953 1.6328-7.8438 6.0586-7.8398 11.027v37.555c0 9.8984-7.6016 17.5-17.5 17.5h-35c-9.8984 0-17.5-7.6055-17.5-17.5v-37.555c0.003906-4.9688-3.1445-9.3945-7.8398-11.027-14.82-5.168-28.566-13.02-40.559-23.152-3.7578-3.168-9.0977-3.6406-13.352-1.1836l-32.266 18.641c-8.5781 4.9531-18.93 2.1914-23.879-6.3789l-17.5-30.352c-4.9531-8.582-2.1953-18.934 6.3789-23.883l32.449-18.73h-0.003906c4.3164-2.4961 6.5703-7.457 5.6055-12.352-1.4922-7.6367-2.2812-15.414-2.3672-23.195 0.085937-7.7812 0.875-15.559 2.3672-23.195 0.96484-4.8945-1.2891-9.8555-5.6055-12.352l-32.445-18.73c-8.5742-4.9492-11.332-15.301-6.3828-23.879l17.5-30.352c4.9492-8.5742 15.305-11.332 23.883-6.3828l32.266 18.641c4.2539 2.457 9.5938 1.9844 13.352-1.1836 11.992-10.133 25.738-17.984 40.559-23.152 4.6953-1.6328 7.8438-6.0586 7.8398-11.027v-37.555c0-9.8945 7.6016-17.5 17.5-17.5z"/>
  <path d="m350 198.33c-44.965 0-81.668 36.703-81.668 81.668s36.703 81.668 81.668 81.668 81.668-36.703 81.668-81.668-36.703-81.668-81.668-81.668zm0 23.332c32.355 0 58.332 25.98 58.332 58.332 0 32.355-25.98 58.332-58.332 58.332-32.355 0-58.332-25.98-58.332-58.332 0-32.355 25.98-58.332 58.332-58.332z"/>
 </g>
</svg>
